<svg width="950" height="390" viewBox="0 0 950 390" fill="none" xmlns="http://www.w3.org/2000/svg">
<path fill-rule="evenodd" clip-rule="evenodd" d="M456.095 0C467.553 0 476.95 0.345508 476.95 0.762151C476.96 1.17879 476.087 6.09721 475.01 11.6863C473.933 17.2754 472.094 26.8785 470.926 33.0265C469.768 39.1745 466.273 58.6145 463.165 76.2151C460.067 93.8157 456.674 113.256 455.638 119.404C454.591 125.552 452.072 140.185 450.04 151.922C447.998 163.659 445.337 179.207 444.118 186.473C442.889 193.739 441.548 199.572 441.131 199.429C440.715 199.287 432.029 199.186 403.291 199.206L404.094 193.342C404.541 190.121 405.191 186.341 405.546 184.949C406.135 182.662 405.648 182.876 400.68 187.093C397.643 189.674 393.112 193.068 390.593 194.633C388.074 196.208 383.279 198.352 379.927 199.409C376.432 200.507 369.28 201.563 363.165 201.889C355.282 202.295 350.711 202.011 345.642 200.811C341.873 199.907 336.164 197.915 332.954 196.381C329.662 194.806 324.431 190.924 320.967 187.489C316.883 183.445 313.531 178.821 311.032 173.77C308.746 169.147 306.623 162.755 305.628 157.511C304.459 151.312 304.155 145.581 304.53 137.187C304.916 128.793 305.8 123.001 307.7 116.609C309.153 111.721 312.281 104.252 314.658 100.004C317.035 95.7668 321.261 89.7509 324.055 86.6413C326.849 83.5216 331.877 78.8877 335.229 76.337C338.582 73.7864 344.748 70.2805 348.943 68.5326C353.129 66.7949 358.614 64.8641 361.133 64.2442C363.653 63.6243 369.128 62.8317 373.324 62.4862C378.382 62.0594 383.848 62.3744 389.577 63.4109C394.748 64.3458 401.168 66.4087 405.577 68.5631C409.823 70.626 414.658 73.9794 416.985 76.4691C419.209 78.847 421.231 80.5542 421.475 80.2799C421.708 80.0055 424.736 62.3947 428.189 41.1561C431.643 19.9175 434.65 1.97143 434.853 1.27025C435.148 0.30486 440.288 0 456.095 0V0ZM358.655 113.906C356.45 116.375 353.768 120.44 352.682 122.96C351.584 125.48 350.467 130.053 350.193 133.122C349.908 136.191 350.193 140.998 350.833 143.792C351.463 146.587 353.271 150.703 354.855 152.938C356.44 155.174 359.985 158.233 362.738 159.747C365.481 161.251 370.256 162.795 373.324 163.182C377.102 163.649 381.379 163.334 386.53 162.206C392.564 160.885 395.306 159.635 399.736 156.16C403.169 153.467 406.501 149.646 408.37 146.262C411.123 141.272 411.418 139.86 411.408 131.598C411.408 124.22 410.981 121.67 409.234 118.387C408.045 116.152 405.76 113.002 404.165 111.376C402.57 109.76 399.207 107.504 396.688 106.366C393.6 104.974 389.313 104.171 383.482 103.917C375.609 103.561 374.309 103.795 368.752 106.478C365.298 108.154 360.92 111.376 358.655 113.906V113.906ZM104.124 62.1305C105.516 62.0696 109.864 62.7199 113.775 63.5634C117.686 64.4068 123.11 66.3478 125.843 67.8619C128.566 69.3862 132.426 72.4551 134.417 74.6908C136.408 76.9264 139.303 81.4993 140.847 84.8528C142.391 88.2062 144.128 93.9274 144.707 97.5553C145.286 101.183 145.764 106.559 145.764 109.496C145.774 112.432 143.742 128.661 141.253 145.571C138.765 162.48 136.002 181.117 135.118 186.981C134.244 192.844 133.421 198.027 133.299 198.484C133.177 198.942 123.7 199.267 112.251 199.196C100.802 199.125 91.3144 198.972 91.1925 198.871C91.0605 198.759 92.31 189.064 93.976 177.327C95.6419 165.59 98.1917 147.979 99.6545 138.203C101.117 128.417 102.123 118.591 101.9 116.355C101.676 114.119 100.711 111.03 99.7561 109.496C98.8114 107.961 96.3124 105.969 94.2198 105.065C91.5379 103.917 88.3075 103.551 83.2994 103.825C78.3421 104.1 74.6952 104.974 71.2515 106.732C68.529 108.114 64.5266 111.183 62.3628 113.56C60.1889 115.938 57.5579 119.82 56.5217 122.198C55.4855 124.576 53.9313 129.718 53.0678 133.63C52.2043 137.543 49.5936 152.867 47.2572 167.673C44.9309 182.479 42.8281 195.629 42.5843 196.889C42.1576 199.175 42.1373 199.175 0 199.155L1.3206 189.257C2.05201 183.81 4.69321 166.098 7.19219 149.89C9.69117 133.681 13.0739 111.508 14.6993 100.604C16.3348 89.7001 18.2649 77.465 20.3169 66.0226H60.9508L60.1889 70.6056C59.7724 73.136 59.1223 77.3735 58.0759 84.8528L62.566 80.2494C65.0243 77.719 69.3315 74.081 72.1251 72.1807C74.9187 70.2703 79.8354 67.6587 83.0454 66.3681C86.2555 65.0775 91.7411 63.6243 95.2356 63.1264C98.7301 62.6386 102.722 62.1915 104.124 62.1305V62.1305ZM221.708 62.0797C225.203 62.0289 231.603 62.7098 235.93 63.5939C240.258 64.4779 246.089 66.3478 248.882 67.74C251.676 69.122 256.136 72.0588 258.787 74.2538C263.439 78.1052 263.632 78.1662 264.059 75.961C264.313 74.7009 264.77 71.9572 265.644 66.0531H285.961C301.798 66.0531 306.176 66.3376 305.8 67.3233C305.526 68.0245 303.667 79.1112 301.645 91.9662C299.634 104.821 296.627 124.251 294.961 135.155C293.305 146.059 290.481 164.94 285.453 199.267L266.66 199.257C249.268 199.247 247.877 199.104 247.958 197.428C248.009 196.432 248.405 192.641 249.665 182.408L245.459 186.219C243.153 188.312 238.866 191.584 235.93 193.474C232.995 195.365 227.631 197.936 223.994 199.175C219.494 200.72 213.998 201.604 206.725 201.939C198.882 202.305 194.179 201.99 188.947 200.761C185.036 199.836 179.094 197.549 175.741 195.69C172.389 193.83 167.208 189.623 164.222 186.341C161.235 183.058 157.416 177.398 155.719 173.77C154.023 170.143 151.889 164.879 150.985 162.084C149.746 158.263 149.34 153.081 149.36 141.252C149.39 127.604 149.705 124.485 151.778 117.879C153.088 113.682 155.049 108.205 156.146 105.685C157.233 103.165 159.996 98.3682 162.292 95.0148C164.587 91.6613 168.092 87.1494 170.083 84.9849C172.084 82.8204 176.229 79.1621 179.297 76.8451C182.365 74.5282 186.713 71.6422 188.947 70.4227C191.182 69.2033 195.063 67.4554 197.582 66.5408C200.101 65.6263 205.12 64.2747 208.756 63.5329C212.393 62.7911 218.214 62.1407 221.708 62.0797V62.0797ZM212.82 106.163C210.869 107.179 207.893 109.049 206.217 110.298C204.541 111.548 201.463 115.024 199.38 118.022C197.145 121.223 194.89 126.192 193.905 130.074C192.503 135.602 192.422 137.675 193.407 142.776C194.067 146.18 195.815 150.621 197.359 152.826C198.872 154.991 202.407 158.06 205.201 159.645C207.995 161.23 212.566 162.816 215.359 163.171C218.173 163.527 223.161 163.263 226.534 162.582C229.886 161.901 234.234 160.519 236.184 159.513C238.135 158.507 241.731 155.936 244.159 153.792C246.587 151.648 249.685 147.603 251.036 144.809C252.397 142.014 253.779 137.207 254.124 134.139C254.459 131.07 254.449 126.497 254.104 123.977C253.738 121.365 252.052 117.27 250.162 114.434C248.344 111.701 245.022 108.429 242.787 107.169C240.552 105.898 236.327 104.364 233.391 103.754C230.455 103.134 227.032 102.687 225.772 102.748C224.512 102.819 221.881 103.195 219.931 103.592C217.98 103.978 214.77 105.136 212.82 106.163V106.163ZM537.891 62.0899C542.076 62.0391 548.476 62.4862 552.113 63.0858C555.749 63.6752 561.235 65.0572 564.303 66.1547C567.371 67.2522 571.942 69.4878 574.461 71.1137C576.98 72.7397 580.861 75.8187 583.096 77.9528C585.331 80.0868 588.592 83.8772 590.339 86.3872C592.086 88.8973 594.27 92.7791 595.195 95.0148C596.119 97.2504 597.541 102.392 598.364 106.447C599.187 110.502 599.827 117.361 599.786 121.69C599.756 126.019 599.187 133.193 597.318 145.703L552.113 145.479C527.245 145.357 506.288 145.611 505.526 146.048C504.622 146.567 504.358 147.796 504.764 149.636C505.109 151.17 507.436 154.483 509.955 157.003C512.667 159.716 516.07 161.982 518.336 162.582C520.428 163.141 525.457 163.598 529.51 163.598C533.563 163.608 539.272 163.09 542.208 162.47C545.144 161.84 549.37 160.417 551.605 159.3C553.839 158.182 556.46 156.525 557.425 155.611C559.071 154.066 559.559 154.208 564.536 157.643C567.482 159.665 574.136 164.015 579.327 167.297C584.518 170.579 588.754 173.496 588.744 173.77C588.724 174.045 586.763 176.169 584.376 178.475C581.999 180.782 577.763 184.39 574.969 186.473C572.175 188.566 567.371 191.544 564.303 193.098C561.235 194.653 555.749 196.858 552.113 198.007C548.476 199.145 541.395 200.568 536.367 201.157C531.338 201.736 523.791 201.96 519.605 201.645C515.41 201.32 509.244 200.395 505.891 199.582C502.539 198.779 496.861 196.635 493.275 194.836C489.404 192.885 484.041 188.871 480.069 184.949C475.467 180.406 472.206 175.965 469.595 170.722C467.513 166.525 465.065 159.665 464.161 155.479C462.931 149.768 462.647 144.677 463.033 135.155C463.409 126.08 464.191 120.42 465.796 115.339C467.025 111.426 469.301 105.705 470.855 102.636C472.399 99.5674 475.782 94.1917 478.352 90.6959C480.932 87.2002 486.123 81.8143 489.892 78.7149C493.661 75.6257 498.577 72.1401 500.812 70.9816C503.047 69.8232 507.395 67.9432 510.463 66.805C513.531 65.6669 519.25 64.1528 523.161 63.4516C527.072 62.7504 533.695 62.1305 537.891 62.0899V62.0899ZM519.209 104.415C517.045 105.949 513.957 109.15 512.352 111.528C510.757 113.906 509.447 116.081 509.447 116.355C509.447 116.629 521.312 116.751 535.818 116.609L562.18 116.355C561.296 112.412 560.26 109.679 559.315 107.717C558.086 105.187 556.003 103.348 552.062 101.346C547.501 99.0389 545.276 98.5512 539.414 98.6223C535.503 98.6731 530.251 99.3641 527.732 100.157C525.213 100.96 521.383 102.87 519.209 104.415ZM678.839 62.1102C683.451 62.0492 690.765 62.6691 695.093 63.4922C699.685 64.3763 706.359 66.6831 711.092 69.0204C716.375 71.6422 721.058 74.9347 724.491 78.4405C727.397 81.4079 731.399 86.5803 733.4 89.9338C735.392 93.2872 737.677 98.3174 738.47 101.112C739.272 103.907 740.237 109.17 740.623 112.798C741.04 116.711 740.755 124.525 739.922 131.954C739.15 138.864 738.175 144.697 737.758 144.91C737.342 145.134 716.995 145.317 692.553 145.317C668.112 145.317 647.49 145.662 646.728 146.079C645.774 146.607 645.56 147.776 646.048 149.89C646.434 151.566 648.659 154.767 650.985 157.013C653.311 159.249 657.049 161.647 659.284 162.328C661.519 163.019 667.005 163.578 671.474 163.578C675.944 163.578 682.121 162.917 685.188 162.104C688.256 161.291 693.295 159.31 701.95 154.778L715.389 163.517C722.785 168.313 728.829 172.703 728.809 173.262C728.789 173.821 725.944 177.032 722.48 180.386C719.006 183.749 713.429 188.17 710.077 190.212C706.724 192.255 701.462 194.917 698.394 196.137C695.327 197.346 689.15 198.982 684.68 199.775C680.211 200.557 672.216 201.187 666.903 201.167C661.59 201.147 654.51 200.527 651.158 199.785C647.805 199.043 642.777 197.549 639.983 196.472C637.19 195.395 632.192 192.702 628.88 190.487C625.568 188.282 620.997 184.512 618.722 182.113C616.446 179.705 612.88 174.675 610.808 170.935C608.726 167.185 606.318 161.027 605.475 157.257C604.551 153.182 603.931 145.55 603.941 138.457C603.951 131.893 604.622 123.316 605.444 119.404C606.257 115.491 608.959 108.175 611.458 103.144C614.079 97.85 618.468 91.1837 621.891 87.3018C625.142 83.613 630.079 78.8775 632.872 76.774C635.666 74.6806 640.471 71.693 643.539 70.1585C646.607 68.6139 651.645 66.5307 654.713 65.5348C657.781 64.5288 662.586 63.3805 665.379 62.974C668.173 62.5777 674.227 62.1813 678.839 62.1102V62.1102ZM659.284 105.024C657.049 106.914 654.225 110.248 653.017 112.412L650.802 116.355H702.366C701.452 112.412 700.446 109.719 699.542 107.819C698.628 105.919 696.739 103.592 695.347 102.636C693.945 101.691 691.202 100.38 689.252 99.73C687.301 99.0694 682.496 98.5816 678.585 98.6325C674.674 98.6833 669.646 99.3743 667.411 100.157C665.176 100.929 661.519 103.124 659.284 105.024V105.024ZM834.264 62.1102C836.082 62.0492 839.963 62.5065 842.899 63.1264C845.834 63.7564 849.949 65.1283 852.041 66.175C854.134 67.2319 857.679 69.9146 859.914 72.1503C862.149 74.3859 864.932 78.156 868.213 84.8528L872.439 80.1884C874.776 77.6174 878.504 74.1115 880.739 72.3941C882.974 70.6666 887.433 68.0855 890.643 66.6425C893.853 65.1995 899.684 63.5634 903.595 63.0045C908.461 62.3134 912.87 62.3338 917.563 63.0654C921.332 63.6548 926.482 65.0572 928.992 66.175C931.501 67.2928 935.046 69.3252 936.864 70.6869C938.683 72.0486 941.456 75.1074 943.031 77.4853C944.595 79.8632 946.637 83.8569 947.551 86.3771C948.465 88.8973 949.501 93.6937 949.857 97.0472C950.273 101.031 949.776 108.256 948.425 117.879C947.277 125.989 945.418 138.559 944.28 145.825C943.142 153.091 940.846 167.724 939.16 178.343C937.484 188.963 936.113 197.997 936.113 198.413C936.102 198.83 926.503 199.175 914.77 199.175C903.037 199.175 893.437 198.942 893.437 198.667C893.437 198.393 894.331 192.103 895.438 184.695C896.535 177.286 898.354 163.913 899.481 154.971C900.609 146.028 902.295 133.905 903.24 128.041C904.205 122.005 904.652 115.715 904.266 113.56C903.9 111.467 902.569 108.551 901.31 107.087C899.522 105.004 897.805 104.303 893.437 103.866C888.825 103.419 886.875 103.774 882.263 105.929C878.108 107.86 875.822 109.801 873.354 113.459C871.525 116.172 869.361 120.44 868.549 122.96C867.736 125.48 865.45 138.732 863.459 152.43C861.468 166.129 859.294 181.331 858.614 186.229C857.933 191.127 857.029 195.131 856.612 195.121C856.196 195.111 856.074 196.025 856.358 197.143C856.643 198.261 856.409 199.175 855.851 199.175C855.292 199.175 855.15 198.606 855.536 197.905C856.084 196.909 855.922 196.899 854.774 197.844C853.768 198.677 847.45 199.084 834.518 199.145C824.187 199.196 815.633 199.104 815.521 198.952C815.41 198.799 815.999 193.861 816.822 187.997C817.645 182.134 820.164 164.066 822.429 147.857C824.786 130.978 826.33 116.436 826.046 113.815C825.67 110.349 824.786 108.561 822.409 106.447C819.768 104.089 818.376 103.652 813.439 103.652C809.457 103.642 806.308 104.323 803.534 105.787C801.3 106.965 798.415 108.916 797.124 110.116C795.834 111.304 793.711 114.577 792.391 117.371C791.08 120.166 789.292 125.196 788.419 128.549C787.545 131.903 784.741 149.056 782.202 166.657C779.652 184.258 777.468 198.759 777.346 198.871C777.224 198.972 767.756 199.114 756.298 199.175C736.783 199.287 735.483 199.175 735.656 197.458C735.757 196.442 736.773 188.759 737.911 180.376C739.049 171.992 740.257 163.08 740.583 160.56C740.908 158.04 741.629 153.467 742.167 150.398C742.706 147.329 744.747 133.61 746.708 119.912C748.658 106.213 750.903 90.6756 751.696 85.3609C752.478 80.0461 753.382 73.5323 754.266 66.0531H774.075C784.965 66.0531 793.884 66.3986 793.884 66.8152C793.884 67.2319 793.193 71.1239 792.36 75.4529C791.517 79.7819 790.836 83.7858 790.836 84.3447C790.836 84.9036 793.051 82.9626 795.753 80.0258C798.445 77.089 803.138 73.014 806.166 70.9511C809.183 68.8984 813.723 66.4595 816.233 65.5246C818.742 64.5897 823.09 63.4719 825.883 63.0349C828.677 62.598 832.445 62.1813 834.264 62.1102V62.1102ZM608.136 192.326C613.317 192.275 613.886 192.479 613.967 194.45C614.028 195.649 613.155 204.185 612.047 213.402C610.94 222.619 610.026 230.281 610.026 230.424C610.016 230.566 607.385 230.688 604.175 230.688C600.965 230.698 596.048 231.297 593.254 232.019C590.461 232.74 586.611 234.448 584.691 235.82C582.771 237.181 580.17 239.671 578.89 241.348C577.62 243.024 576.219 245.89 574.969 251.052L611.032 251.002L610.524 253.796C610.239 255.331 609.315 262.312 608.482 269.293C607.639 276.285 606.704 283.601 605.861 289.109L589.15 288.855C576.523 288.662 572.308 288.916 571.932 289.871C571.657 290.572 569.128 311.262 566.324 335.854C563.51 360.446 560.991 382.051 560.239 387.173H537.891C520.682 387.173 515.542 386.878 515.552 385.902C515.552 385.201 516.477 377.092 517.604 367.865C518.722 358.638 521.231 338.181 523.181 322.39C525.121 306.598 526.716 292.544 526.716 291.142C526.716 288.621 526.655 288.601 517.828 288.703C512.941 288.764 508.37 288.764 507.669 288.703C506.829 288.628 506.562 287.493 506.867 285.298C507.121 283.479 508.157 275.014 510.971 250.981L521.383 250.991C528.839 251.002 531.907 250.646 532.182 249.731C532.385 249.03 533.045 245.26 533.644 241.348C534.386 236.541 536.154 231.47 539.11 225.688C542.096 219.835 545.083 215.699 548.557 212.579C551.351 210.079 555.922 206.512 558.716 204.663C561.509 202.824 567.685 199.866 572.429 198.108C577.925 196.076 584.934 194.46 591.731 193.647C597.592 192.956 604.977 192.357 608.136 192.326V192.326ZM487.606 204.622C492.909 204.897 496.007 205.679 499.796 207.722C502.59 209.226 505.77 211.695 506.867 213.199C507.964 214.723 509.051 218.209 509.284 221.024C509.528 223.818 509.437 227.365 509.081 228.899C508.726 230.434 506.714 233.553 504.622 235.82C502.529 238.086 498.76 240.718 496.241 241.663C493.193 242.808 488.961 243.336 483.543 243.248C478.494 243.177 473.882 242.476 471.353 241.419C469.118 240.474 466.213 238.706 464.902 237.476C463.602 236.257 461.885 233.99 461.093 232.456C460.31 230.921 459.67 227.263 459.67 224.326C459.677 220.77 460.354 217.89 461.702 215.689C462.82 213.87 465.43 211.126 467.493 209.591C469.565 208.057 473.334 206.228 475.873 205.527C478.413 204.836 483.695 204.429 487.606 204.622ZM646.586 204.714C652.437 205.12 655.383 205.913 659.284 208.138C662.789 210.13 664.963 212.254 666.304 215.008C667.37 217.203 668.457 220.597 668.721 222.548C669.006 224.753 668.447 227.842 667.228 230.678C666.101 233.32 663.591 236.541 661.306 238.299C659.132 239.976 655.272 241.876 652.732 242.527C650.192 243.177 644.91 243.583 640.999 243.431C635.676 243.218 632.608 242.476 628.809 240.484C625.589 238.787 622.907 236.419 621.475 233.99C620.032 231.531 619.209 228.452 619.189 225.343C619.169 222.69 619.829 219.032 620.652 217.213C621.474 215.394 623.577 212.538 625.335 210.862C627.082 209.185 630.861 207 633.736 206.004C637.687 204.632 640.826 204.317 646.586 204.714V204.714ZM238.216 247.445C246.681 247.709 253.623 248.549 259.041 249.965C263.511 251.134 270.591 253.938 274.786 256.194C278.972 258.45 282.741 260.615 283.157 260.991C283.563 261.367 279.906 267.403 275.03 274.415C270.144 281.417 265.41 288.276 262.85 292.158L255.871 288.875C252.021 287.077 246.83 285.085 244.311 284.465C241.792 283.845 235.971 283.378 231.359 283.429C225.589 283.49 221.851 284.079 219.362 285.298C217.371 286.274 215.542 287.88 215.298 288.855C215.055 289.831 215.085 291.548 215.359 292.666C215.674 293.916 218.021 295.674 221.455 297.239C224.522 298.641 227.611 299.779 228.311 299.789C229.012 299.8 235.067 301.669 241.771 303.956C249.218 306.496 256.532 309.799 260.565 312.461C264.76 315.226 268.549 318.803 270.947 322.268C273.415 325.824 275.305 330.204 276.381 334.838C277.417 339.279 277.824 344.045 277.478 347.541C277.174 350.61 275.894 355.874 274.634 359.227C272.917 363.81 270.682 366.991 265.695 372.011C261.073 376.655 256.877 379.714 251.93 382.041C248.019 383.88 242.767 386.014 240.248 386.786C237.728 387.549 230.424 388.666 223.994 389.266C216.02 389.998 209.407 390.018 203.169 389.327C198.141 388.768 191.05 387.66 187.424 386.858C183.797 386.065 176.94 383.585 172.186 381.36C167.432 379.134 160.575 375.141 156.948 372.499C151.31 368.393 150.569 367.499 151.869 366.412C152.702 365.7 157.964 361.493 163.551 357.052C169.138 352.612 176.453 346.911 185.9 339.787L188.44 342.175C189.831 343.486 192.574 345.681 194.535 347.063C196.495 348.445 200.142 350.325 202.661 351.25C205.181 352.164 211.123 353.109 215.867 353.343C223.293 353.699 224.969 353.465 227.804 351.666C230.506 349.959 231.105 348.923 231.105 346.016C231.105 343.273 230.465 342.023 228.311 340.559C226.778 339.513 220.266 336.932 213.836 334.818C207.405 332.704 198.039 329.066 193.011 326.729C186.184 323.548 182.72 321.211 179.348 317.481C176.859 314.728 173.71 309.962 172.348 306.893C170.195 302.015 169.931 300.145 170.276 292.158C170.601 284.496 171.16 282.026 173.71 276.935C175.386 273.602 179.277 268.318 182.344 265.218C185.412 262.109 190.217 258.227 193.011 256.591C195.804 254.965 201.29 252.556 205.201 251.256C209.112 249.955 215.278 248.471 218.915 247.963C222.552 247.465 231.227 247.232 238.216 247.445V247.445ZM357.832 248.034C363.003 247.994 370.774 248.644 375.101 249.487C379.429 250.331 385.94 252.424 389.577 254.132C393.214 255.849 398.009 258.765 404.307 263.989L405.17 258.765C405.638 255.89 406.206 252.973 406.44 252.272C406.745 251.317 411.804 251.002 427.163 251.002C442.746 251.002 447.48 251.296 447.47 252.272C447.47 252.973 447.023 256.286 446.485 259.639C445.936 262.993 442.513 289.516 438.866 318.579C435.209 347.642 431.775 374.968 430.211 387.173H409.894C391.223 387.173 389.577 387.03 389.587 385.394C389.587 384.419 390.024 380.872 390.562 377.519C391.101 374.165 391.436 371.299 391.314 371.147C391.202 370.995 389.049 372.732 386.53 375.009C384.01 377.285 377.844 381.187 372.816 383.687C365.349 387.406 361.997 388.443 354.53 389.347C349.502 389.967 341.497 390.18 336.753 389.835C332.009 389.489 325.833 388.605 323.039 387.864C320.246 387.112 315.014 384.937 311.398 383.026C307.781 381.116 301.859 376.584 298.192 372.946C294.535 369.308 290.095 363.597 288.338 360.243C286.58 356.89 284.366 351.626 283.431 348.557C282.334 344.99 281.532 337.816 281.196 328.741C280.81 317.969 281.075 312.665 282.304 306.893C283.198 302.706 285.798 295.379 288.094 290.633C290.4 285.888 293.712 280.167 295.469 277.931C297.226 275.705 300.944 271.661 303.738 268.948C306.532 266.245 311.337 262.373 314.404 260.351C317.472 258.328 323.192 255.432 327.103 253.918C331.014 252.404 337.413 250.483 341.324 249.64C345.235 248.807 352.661 248.085 357.832 248.034V248.034ZM338.196 299.149C333.838 303.549 331.521 306.862 330.313 310.449C329.368 313.244 328.596 318.274 328.596 321.628C328.586 324.981 329.297 329.778 330.17 332.298C331.044 334.818 333.685 338.822 336.032 341.2C338.389 343.578 342.594 346.545 345.388 347.795C349.553 349.665 352.214 350.061 360.118 350.01C367.411 349.959 371.129 349.411 375.355 347.774C378.423 346.585 383.157 343.649 385.879 341.24C389.049 338.425 391.934 334.513 393.976 330.265C396.505 324.991 397.155 322.329 397.176 317.055C397.186 311.943 396.586 309.189 394.494 304.86C393 301.791 390.258 298.062 388.399 296.578C386.53 295.095 382.72 292.879 379.927 291.639C376.402 290.085 372.196 289.272 366.213 288.987C359.335 288.662 356.227 289.028 350.975 290.755C345.591 292.524 343.224 294.078 338.196 299.149V299.149ZM481.003 251.002C495.225 251.002 503.352 251.367 503.352 252.018C503.352 252.577 502.001 263.206 500.345 275.644C498.699 288.083 495.743 311.516 493.793 327.725C491.842 343.933 489.425 363.942 486.59 387.183L441.893 387.193L442.574 381.34C442.95 378.118 446.729 348.049 450.965 314.514C455.201 280.98 458.665 252.973 458.655 252.272C458.655 251.296 463.795 251.002 481.003 251.002V251.002ZM618.173 251.002H640.511C657.689 251.002 662.84 251.296 662.84 252.272C662.85 252.973 659.406 282.809 655.19 318.579C650.985 354.349 647.318 384.419 647.064 385.394C646.627 387.02 644.687 387.173 602.905 387.173L602.915 384.886C602.915 383.626 603.819 375.059 604.926 365.832C606.034 356.605 608.086 338.314 609.477 325.184C610.879 312.055 613.185 291.02 614.607 278.439C616.03 265.869 617.421 254.548 617.685 253.288L618.173 251.002Z" fill="#FEFEFE" fill-opacity="0.99"/>
</svg>
